<svg width="184" height="65" viewBox="0 0 184 65" fill="none" xmlns="http://www.w3.org/2000/svg">
<mask id="mask0_18_99" style="mask-type:luminance" maskUnits="userSpaceOnUse" x="0" y="0" width="54" height="65">
<path d="M0 0H53.6067V65H0V0Z" fill="white"/>
</mask>
<g mask="url(#mask0_18_99)">
<path d="M46.3096 26.6305C46.3096 38.4851 35.5721 48.1068 22.3281 48.1068C16.1864 48.1068 10.331 46.1587 5.47438 42.4193C4.12445 41.367 2.86479 40.2117 1.81249 38.914C3.13704 43.3799 5.14995 47.7033 7.86392 51.5345C12.1225 57.5845 18.0427 62.4412 25.4046 64.921V54.9749C25.4046 54.209 26.0281 53.5855 26.794 53.5855C34.1954 53.5855 40.9084 50.5725 45.7637 45.7172C50.5935 40.8606 53.5938 34.1871 53.5938 26.7857C53.5938 19.3857 50.5808 12.6854 45.751 7.83019C40.8943 3.01302 34.1954 0 26.794 0C19.3927 0 12.7192 3.01302 7.86392 7.83019C3.00726 12.6854 -0.00434875 19.3984 -0.00434875 26.7998C-0.00434875 27.3316 0.0337372 27.8902 0.0337372 28.4488C0.56694 33.0699 3.26681 37.2001 7.20095 40.2117C7.66926 40.5756 8.16156 40.9001 8.65526 41.2372V24.1507C8.65526 19.5536 10.7726 15.3994 14.1354 12.3864C17.4715 9.41428 22.0686 7.55653 27.158 7.55653C30.9228 7.55653 34.4945 8.58203 37.4934 10.4003C40.505 12.2439 42.9072 14.8676 44.3361 18.0612C44.9596 19.3857 45.466 20.8006 45.7905 22.19C46.153 23.657 46.3096 25.1367 46.3096 26.6305Z" fill="#FFD900"/>
</g>
<path d="M22.3282 45.3011C34.0262 45.3011 43.5054 36.9405 43.5054 26.6305C43.5054 25.3455 43.3361 24.0858 43.0766 22.8657C42.7775 21.606 42.3487 20.3858 41.7915 19.2292L41.752 19.1911C40.5968 16.542 38.5444 14.3344 36.0392 12.8152C33.4945 11.2579 30.3912 10.3749 27.1581 10.3749C22.7951 10.3749 18.8356 11.959 15.9919 14.4769C13.213 16.944 11.4596 20.3858 11.4596 24.1507V42.8213C14.7576 44.3673 18.5239 45.3011 22.3282 45.3011ZM21.9389 30.9286C21.4452 31.1233 20.912 31.253 20.3548 31.253C18.0048 31.253 16.1216 29.3318 16.1216 27.0198C16.1216 24.6698 18.0048 22.7867 20.3548 22.7867C22.6654 22.7867 24.5866 24.6698 24.5866 27.0198C24.5866 27.9156 24.2889 28.7337 23.8206 29.4348C23.7557 28.7083 23.1323 28.1497 22.4058 28.1497C21.6131 28.1497 20.9515 28.7732 20.9515 29.5646C20.9388 30.2007 21.3676 30.7593 21.9389 30.9286ZM33.2603 31.253C30.9103 31.253 29.0271 29.3318 29.0271 27.0198C29.0271 24.6698 30.9103 22.7867 33.2603 22.7867C35.6103 22.7867 37.4935 24.6698 37.4935 27.0198C37.4935 27.9156 37.2339 28.7337 36.7275 29.4348C36.6626 28.7083 36.0392 28.1497 35.3113 28.1497C34.52 28.1497 33.8965 28.7732 33.8965 29.5646C33.8965 30.188 34.2985 30.7593 34.8839 30.9159C34.3902 31.1233 33.8316 31.253 33.2603 31.253Z" fill="#FFD900"/>
<path d="M80.5067 34.13L73.9067 20.6H78.2867L83.3267 31.19L82.3667 30.89H85.2167L84.1967 31.19L88.7867 20.6H92.9267L86.8367 34.13H80.5067ZM81.5867 42.5V33.47H85.7567V42.5H81.5867ZM104.392 42.5V37.67H103.702V32.3C103.702 31.36 103.472 30.66 103.012 30.2C102.552 29.74 101.842 29.51 100.882 29.51C100.382 29.51 99.7816 29.52 99.0816 29.54C98.3816 29.56 97.6716 29.59 96.9516 29.63C96.2516 29.65 95.6216 29.68 95.0616 29.72V26.18C95.5216 26.14 96.0416 26.1 96.6216 26.06C97.2016 26.02 97.7916 26 98.3916 26C99.0116 25.98 99.5916 25.97 100.132 25.97C101.812 25.97 103.202 26.19 104.302 26.63C105.422 27.07 106.262 27.76 106.822 28.7C107.402 29.64 107.692 30.87 107.692 32.39V42.5H104.392ZM99.1416 42.92C97.9616 42.92 96.9216 42.71 96.0216 42.29C95.1416 41.87 94.4516 41.27 93.9516 40.49C93.4716 39.71 93.2316 38.77 93.2316 37.67C93.2316 36.47 93.5216 35.49 94.1016 34.73C94.7016 33.97 95.5316 33.4 96.5916 33.02C97.6716 32.64 98.9316 32.45 100.372 32.45H104.152V34.94H100.312C99.3516 34.94 98.6116 35.18 98.0916 35.66C97.5916 36.12 97.3416 36.72 97.3416 37.46C97.3416 38.2 97.5916 38.8 98.0916 39.26C98.6116 39.72 99.3516 39.95 100.312 39.95C100.892 39.95 101.422 39.85 101.902 39.65C102.402 39.43 102.812 39.07 103.132 38.57C103.472 38.05 103.662 37.35 103.702 36.47L104.722 37.64C104.622 38.78 104.342 39.74 103.882 40.52C103.442 41.3 102.822 41.9 102.022 42.32C101.242 42.72 100.282 42.92 99.1416 42.92ZM112.158 48.5V26.21H115.458V33.23L114.948 33.2C115.028 31.54 115.368 30.15 115.968 29.03C116.588 27.91 117.408 27.08 118.428 26.54C119.448 25.98 120.588 25.7 121.848 25.7C123.008 25.7 124.048 25.91 124.968 26.33C125.908 26.75 126.708 27.34 127.368 28.1C128.048 28.86 128.568 29.75 128.928 30.77C129.288 31.77 129.468 32.85 129.468 34.01V34.64C129.468 35.82 129.288 36.92 128.928 37.94C128.588 38.94 128.078 39.83 127.398 40.61C126.738 41.37 125.938 41.97 124.998 42.41C124.058 42.83 123.008 43.04 121.848 43.04C120.628 43.04 119.508 42.79 118.488 42.29C117.488 41.77 116.678 40.98 116.058 39.92C115.438 38.84 115.088 37.45 115.008 35.75L116.328 37.76V48.5H112.158ZM120.798 39.53C121.698 39.53 122.478 39.31 123.138 38.87C123.818 38.43 124.348 37.82 124.728 37.04C125.108 36.24 125.298 35.34 125.298 34.34C125.298 33.3 125.108 32.4 124.728 31.64C124.348 30.88 123.818 30.29 123.138 29.87C122.478 29.43 121.698 29.21 120.798 29.21C119.978 29.21 119.218 29.39 118.518 29.75C117.838 30.11 117.278 30.64 116.838 31.34C116.418 32.04 116.208 32.88 116.208 33.86V35.06C116.208 36 116.428 36.8 116.868 37.46C117.308 38.12 117.878 38.63 118.578 38.99C119.278 39.35 120.018 39.53 120.798 39.53ZM133.135 48.5V26.21H136.435V33.23L135.925 33.2C136.005 31.54 136.345 30.15 136.945 29.03C137.565 27.91 138.385 27.08 139.405 26.54C140.425 25.98 141.565 25.7 142.825 25.7C143.985 25.7 145.025 25.91 145.945 26.33C146.885 26.75 147.685 27.34 148.345 28.1C149.025 28.86 149.545 29.75 149.905 30.77C150.265 31.77 150.445 32.85 150.445 34.01V34.64C150.445 35.82 150.265 36.92 149.905 37.94C149.565 38.94 149.055 39.83 148.375 40.61C147.715 41.37 146.915 41.97 145.975 42.41C145.035 42.83 143.985 43.04 142.825 43.04C141.605 43.04 140.485 42.79 139.465 42.29C138.465 41.77 137.655 40.98 137.035 39.92C136.415 38.84 136.065 37.45 135.985 35.75L137.305 37.76V48.5H133.135ZM141.775 39.53C142.675 39.53 143.455 39.31 144.115 38.87C144.795 38.43 145.325 37.82 145.705 37.04C146.085 36.24 146.275 35.34 146.275 34.34C146.275 33.3 146.085 32.4 145.705 31.64C145.325 30.88 144.795 30.29 144.115 29.87C143.455 29.43 142.675 29.21 141.775 29.21C140.955 29.21 140.195 29.39 139.495 29.75C138.815 30.11 138.255 30.64 137.815 31.34C137.395 32.04 137.185 32.88 137.185 33.86V35.06C137.185 36 137.405 36.8 137.845 37.46C138.285 38.12 138.855 38.63 139.555 38.99C140.255 39.35 140.995 39.53 141.775 39.53ZM161.401 43.07C160.001 43.07 158.771 42.83 157.711 42.35C156.671 41.87 155.801 41.23 155.101 40.43C154.421 39.61 153.901 38.7 153.541 37.7C153.201 36.7 153.031 35.68 153.031 34.64V34.07C153.031 32.99 153.201 31.95 153.541 30.95C153.901 29.93 154.421 29.03 155.101 28.25C155.801 27.45 156.661 26.82 157.681 26.36C158.701 25.88 159.881 25.64 161.221 25.64C162.981 25.64 164.451 26.03 165.631 26.81C166.831 27.57 167.731 28.58 168.331 29.84C168.931 31.08 169.231 32.42 169.231 33.86V35.36H154.801V32.81H166.621L165.331 34.07C165.331 33.03 165.181 32.14 164.881 31.4C164.581 30.66 164.121 30.09 163.501 29.69C162.901 29.29 162.141 29.09 161.221 29.09C160.301 29.09 159.521 29.3 158.881 29.72C158.241 30.14 157.751 30.75 157.411 31.55C157.091 32.33 156.931 33.27 156.931 34.37C156.931 35.39 157.091 36.3 157.411 37.1C157.731 37.88 158.221 38.5 158.881 38.96C159.541 39.4 160.381 39.62 161.401 39.62C162.421 39.62 163.251 39.42 163.891 39.02C164.531 38.6 164.941 38.09 165.121 37.49H168.961C168.721 38.61 168.261 39.59 167.581 40.43C166.901 41.27 166.031 41.92 164.971 42.38C163.931 42.84 162.741 43.07 161.401 43.07ZM172.715 42.5V26.21H176.015V33.11H175.925C175.925 30.77 176.425 29 177.425 27.8C178.425 26.6 179.895 26 181.835 26H182.435V29.63H181.295C179.895 29.63 178.805 30.01 178.025 30.77C177.265 31.51 176.885 32.59 176.885 34.01V42.5H172.715Z" fill="white"/>
</svg>
